<svg aria-hidden="true" style="position: absolute; width: 0; height: 0; overflow: hidden;" version="1.1" xmlns="http://www.w3.org/2000/svg" xmlns:xlink="http://www.w3.org/1999/xlink">
<defs>
<symbol id="icon-export" viewBox="0 0 32 32">
<path d="M18 5v2h5.563l-12.281 12.281 1.438 1.438 12.281-12.281v5.563h2v-9zM5 9v18h18v-13l-2 2v9h-14v-14h9l2-2z"></path>
</symbol>
<symbol id="icon-right" viewBox="0 0 32 32">
<path d="M25.406 16l-0.688-0.719-12.5-12.5-1.438 1.438 11.781 11.781-11.781 11.781 1.438 1.438 12.5-12.5z"></path>
</symbol>
<symbol id="icon-up" viewBox="0 0 32 32">
<path d="M16 6.594l-0.719 0.688-12.5 12.5 1.438 1.438 11.781-11.781 11.781 11.781 1.438-1.438-12.5-12.5z"></path>
</symbol>
<symbol id="icon-email" viewBox="0 0 32 32">
<path d="M16.188 4c-7.363-0.109-13.273 6.484-12.031 14.031 0.844 5.121 5.047 9.148 10.188 9.844 3.465 0.469 6.703-0.531 9.156-2.5l-1.25-1.563c-2.047 1.641-4.738 2.488-7.656 2.094-4.254-0.574-7.742-3.953-8.438-8.188-1.047-6.371 3.836-11.809 10-11.719 5.254 0.078 9.684 4.434 9.844 9.688 0.004 0.113 0 0.223 0 0.344-0.008 2.203-1.793 3.969-4 3.969-1.117 0-2-0.883-2-2v-8h-2v0.781c-0.719-0.488-1.574-0.781-2.5-0.781-2.473 0-4.5 2.027-4.5 4.5v3c0 2.473 2.027 4.5 4.5 4.5 1.348 0 2.547-0.613 3.375-1.563 0.734 0.934 1.855 1.563 3.125 1.563 3.285 0 5.988-2.68 6-5.969 0-0.133 0.004-0.262 0-0.406-0.191-6.336-5.477-11.531-11.813-11.625zM15.5 12c1.391 0 2.5 1.109 2.5 2.5v3c0 1.391-1.109 2.5-2.5 2.5s-2.5-1.109-2.5-2.5v-3c0-1.391 1.109-2.5 2.5-2.5z"></path>
</symbol>
<symbol id="icon-info" viewBox="0 0 32 32">
<path d="M16 3c-7.168 0-13 5.832-13 13s5.832 13 13 13c7.168 0 13-5.832 13-13s-5.832-13-13-13zM16 5c6.086 0 11 4.914 11 11s-4.914 11-11 11c-6.086 0-11-4.914-11-11s4.914-11 11-11zM15 10v2h2v-2zM15 14v8h2v-8z"></path>
</symbol>
<symbol id="icon-send" viewBox="0 0 32 32">
<path d="M26.070 3.996c-0.336 0.016-0.652 0.113-0.934 0.223h-0.004c-0.285 0.113-1.641 0.684-3.699 1.547-2.059 0.867-4.73 1.992-7.383 3.109-5.297 2.23-10.504 4.426-10.504 4.426l0.063-0.023c0 0-0.359 0.117-0.734 0.375-0.191 0.125-0.402 0.297-0.586 0.566s-0.332 0.684-0.277 1.109c0.090 0.723 0.559 1.156 0.895 1.395 0.34 0.242 0.664 0.355 0.664 0.355h0.008l4.883 1.645c0.219 0.703 1.488 4.875 1.793 5.836 0.18 0.574 0.355 0.934 0.574 1.207 0.105 0.141 0.23 0.258 0.379 0.352 0.059 0.035 0.121 0.063 0.184 0.086 0.020 0.012 0.039 0.016 0.063 0.020l-0.051-0.012c0.016 0.004 0.027 0.016 0.039 0.020 0.039 0.012 0.066 0.016 0.117 0.023 0.773 0.234 1.395-0.246 1.395-0.246l0.035-0.027 2.883-2.625 4.832 3.707 0.109 0.047c1.008 0.441 2.027 0.195 2.566-0.238 0.543-0.438 0.754-0.996 0.754-0.996l0.035-0.090 3.734-19.129c0.105-0.473 0.133-0.914 0.016-1.344s-0.418-0.832-0.781-1.047c-0.367-0.219-0.73-0.285-1.066-0.27zM25.969 6.047c-0.004 0.063 0.008 0.055-0.020 0.176v0.012l-3.699 18.93c-0.016 0.027-0.043 0.086-0.117 0.145-0.078 0.063-0.141 0.102-0.465-0.027l-5.91-4.531-3.57 3.254 0.75-4.789c0 0 9.258-8.629 9.656-9s0.266-0.449 0.266-0.449c0.027-0.453-0.602-0.133-0.602-0.133l-12.176 7.543-0.004-0.020-5.836-1.969c-0.004 0-0.012-0.004-0.016-0.004 0.004 0 0.031-0.012 0.031-0.012l0.031-0.016 0.031-0.012c0 0 5.211-2.195 10.508-4.426 2.652-1.117 5.324-2.242 7.379-3.109 2.055-0.863 3.574-1.496 3.66-1.531 0.082-0.031 0.043-0.031 0.102-0.031z"></path>
</symbol>
<symbol id="icon-sms-compose" viewBox="0 0 32 32">
<path d="M2.953 7v18h12.834l0.414-2h-11.248v-13.131l11 7.332 11-7.332v2.6c0.627-0.292 1.302-0.458 2-0.465v-5.004h-26zM7.256 9h17.395l-8.697 5.799-8.697-5.799zM29 14c-0.75 0-1.5 0.3-2.1 0.9l-8.801 8.799-1.1 5.301 5.301-1.1 8.799-8.801c0.6-0.6 0.9-1.35 0.9-2.1s-0.3-1.5-0.9-2.1c-0.6-0.6-1.35-0.9-2.1-0.9zM29 16c0.25 0 0.499 0.101 0.699 0.301 0.4 0.4 0.4 0.998 0 1.398l-8.398 8.4-1.701 0.301 0.301-1.701 8.4-8.398c0.2-0.2 0.449-0.301 0.699-0.301z"></path>
</symbol>
<symbol id="icon-user" viewBox="0 0 32 32">
<path d="M16 4c-3.855 0-7 3.145-7 7 0 2.395 1.219 4.52 3.063 5.781-3.578 1.523-6.063 5.078-6.063 9.219h2c0-4.465 3.535-8 8-8s8 3.535 8 8h2c0-4.141-2.484-7.695-6.063-9.219 1.844-1.262 3.063-3.387 3.063-5.781 0-3.855-3.145-7-7-7zM16 6c2.773 0 5 2.227 5 5s-2.227 5-5 5c-2.773 0-5-2.227-5-5s2.227-5 5-5z"></path>
</symbol>
<symbol id="icon-facebook_f" viewBox="0 0 32 32">
<path  d="M19.254 2c-3.942 0-6.254 2.082-6.254 6.826v4.174h-5v5h5v12h5v-12h4l1-5h-5v-3.328c0-1.787 0.583-2.672 2.26-2.672h2.74v-4.795c-0.474-0.064-1.855-0.205-3.746-0.205z"></path>
</symbol>
<symbol id="icon-laptop_coding" viewBox="0 0 32 32">
<path  d="M5 6v13.563l-2.281 2.314c-0.453 0.452-0.719 1.076-0.719 1.717 0 1.32 1.086 2.406 2.406 2.406h23.188c1.32 0 2.406-1.086 2.406-2.406 0-0.641-0.266-1.266-0.719-1.719l-2.281-2.313v-13.563h-22zM7 8h18v11h-18v-11zM16 9l-1.5 9h1.5l1.5-9h-1.5zM12.086 11l-1.719 2.068-0.367 0.432 0.367 0.432 1.719 2.068 1.086-0.863-1.361-1.637 1.361-1.637-1.086-0.863zM19.914 11l-1.086 0.863 1.361 1.637-1.361 1.637 1.086 0.863 1.719-2.068 0.367-0.432-0.367-0.432-1.719-2.068zM6.438 21h19.125l2.313 2.281c0.078 0.078 0.125 0.203 0.125 0.313 0 0.242-0.164 0.406-0.406 0.406h-23.188c-0.242 0-0.406-0.164-0.406-0.406 0-0.109 0.047-0.233 0.125-0.313l2.313-2.281z"></path>
</symbol>
<symbol id="icon-linkedin_2" viewBox="0 0 32 32">
<path  d="M8.643 4c-1.459 0-2.643 1.182-2.643 2.641s1.183 2.668 2.641 2.668c1.458 0 2.643-1.209 2.643-2.668s-1.182-2.641-2.641-2.641zM21.535 11c-2.219 0-3.489 1.16-4.098 2.314h-0.064v-2.004h-4.373v14.689h4.557v-7.271c0-1.916 0.145-3.768 2.516-3.768 2.337 0 2.371 2.185 2.371 3.889v7.15h4.557v-8.068c0-3.948-0.849-6.932-5.465-6.932zM6.363 11.311v14.689h4.561v-14.689h-4.561z"></path>
</symbol>
<symbol id="icon-mobile_development" viewBox="0 0 32 32">
<path  d="M11 4c-1.654 0-3 1.346-3 3v3l2-2v-1c0-0.551 0.448-1 1-1h10c0.552 0 1 0.449 1 1v1l2 2v-3c0-1.654-1.346-3-3-3h-10zM10.293 9.793l-5.707 5.707 5.707 5.707 1.414-1.414-4.293-4.293 4.293-4.293-1.414-1.414zM21.707 9.793l-1.414 1.414 4.293 4.293-4.293 4.293 1.414 1.414 5.707-5.707-5.707-5.707zM8 21v4c0 1.654 1.346 3 3 3h10c1.654 0 3-1.346 3-3v-4l-2 2v2c0 0.551-0.448 1-1 1h-10c-0.552 0-1-0.449-1-1v-2l-2-2zM16 23c-0.551 0-1 0.449-1 1s0.449 1 1 1c0.551 0 1-0.449 1-1s-0.449-1-1-1z"></path>
</symbol>
<symbol id="icon-program" viewBox="0 0 32 32">
<path  d="M11.416 5l-8.416 0.002v21.998h26v-20h-15.586l-1.998-2zM10.588 7l1.998 2h14.414v16h-22v-17.998l5.588-0.002zM12.682 12.318l-1.414 1.414 2.768 2.768-2.768 2.768 1.414 1.414 4.182-4.182-4.182-4.182zM17 19v2h5v-2h-5z"></path>
</symbol>
<symbol id="icon-server" viewBox="0 0 32 32">
<path  d="M8 4v24h16v-24zM10 6h12v20h-12zM12 8v2h8v-2zM12 12v2h8v-2zM16 20c-0.551 0-1 0.449-1 1s0.449 1 1 1c0.551 0 1-0.449 1-1s-0.449-1-1-1z"></path>
</symbol>
<symbol id="icon-telephone" viewBox="0 0 32 32">
<path  d="M16 4c-4.809 0-7.68 0.574-9.492 1.281-0.902 0.352-1.543 0.738-1.996 1.086s-0.754 0.672-0.801 0.715h-0.004c-0.41 0.359-0.547 0.797-0.625 1.184-0.078 0.391-0.090 0.77-0.078 1.141 0.023 0.742 0.145 1.445 0.215 1.816 0.219 1.148 1.152 1.93 2.219 1.758 0.227-0.039 0.441-0.094 0.805-0.184 0.367-0.094 0.824-0.207 1.281-0.324 0.914-0.23 1.887-0.477 2.074-0.52 0.879-0.195 1.297-0.883 1.527-1.578v-0.004c-0.016 0.055 0.164-0.398 0.379-0.879 0.219-0.484 0.496-1.090 0.77-1.68 0.383-0.832 0.566-1.223 0.754-1.625 0.969-0.066 1.73-0.188 2.973-0.188s2.004 0.121 2.977 0.191c0.188 0.402 0.367 0.789 0.75 1.621 0.273 0.59 0.547 1.195 0.766 1.68s0.402 0.945 0.383 0.887v-0.004c0.23 0.688 0.641 1.395 1.547 1.582 0.141 0.031 1.121 0.281 2.031 0.512 0.457 0.117 0.91 0.234 1.281 0.324 0.375 0.090 0.594 0.152 0.84 0.191h0.004c1.059 0.156 1.98-0.602 2.203-1.762 0.070-0.371 0.191-1.074 0.215-1.816 0.012-0.367 0-0.75-0.078-1.141-0.078-0.387-0.219-0.824-0.629-1.184-0.051-0.043-0.352-0.367-0.805-0.715-0.449-0.348-1.090-0.734-1.996-1.086-1.813-0.703-4.684-1.281-9.488-1.281zM10.75 6.336c-0.137 0.297-0.145 0.313-0.297 0.641-0.27 0.594-0.551 1.199-0.773 1.695-0.219 0.496-0.355 0.773-0.453 1.070v0.008h-0.004c-0.086 0.258-0.27 0.301-0.066 0.254-0.324 0.074-1.211 0.301-2.125 0.531-0.453 0.117-0.906 0.23-1.266 0.316-0.285 0.070-0.449 0.105-0.523 0.125-0.023-0.020-0.043-0.059-0.055-0.129-0.063-0.328-0.168-0.953-0.188-1.504-0.008-0.273 0.012-0.527 0.043-0.68 0.016-0.078 0.035-0.117 0.043-0.129 0.219-0.203 0.355-0.363 0.641-0.582 0.309-0.234 0.766-0.52 1.508-0.809 0.785-0.305 1.961-0.59 3.516-0.809zM21.25 6.336c1.551 0.219 2.727 0.504 3.516 0.813 0.742 0.285 1.199 0.57 1.508 0.809 0.285 0.219 0.422 0.375 0.645 0.578 0.004 0.012 0.027 0.055 0.039 0.129 0.031 0.156 0.051 0.41 0.043 0.684-0.020 0.547-0.125 1.176-0.188 1.5-0.016 0.078-0.043 0.109-0.066 0.125-0.082-0.016-0.242-0.051-0.531-0.121-0.363-0.090-0.813-0.203-1.266-0.32-0.902-0.23-1.746-0.453-2.109-0.531 0.188 0.043 0.020 0.004-0.063-0.25v-0.004l-0.004-0.004c-0.098-0.297-0.234-0.574-0.457-1.070-0.219-0.496-0.5-1.102-0.773-1.695-0.152-0.328-0.156-0.344-0.293-0.641zM12 11v2.543c-0.348 0.254-1.598 1.141-3.207 2.75-1.816 1.816-3.793 4.125-3.793 6.707v5h4.414l1-1h11.172l1 1h4.414v-5c0-2.582-1.977-4.891-3.793-6.707-1.609-1.609-2.859-2.496-3.207-2.75v-2.543h-3v1h-2v-1zM5.117 11.004c0.004 0 0 0 0.004 0 0 0-0.008 0.004-0.008 0zM14 14h4v0.516l0.418 0.297c0 0 1.691 1.211 3.375 2.895s3.207 3.875 3.207 5.293v3h-1.586l-1-1h-12.828l-1 1h-1.586v-3c0-1.418 1.523-3.609 3.207-5.293s3.375-2.895 3.375-2.895l0.418-0.297zM12 18v2h2v-2zM15 18v2h2v-2zM18 18v2h2v-2zM12 21v2h2v-2zM15 21v2h2v-2zM18 21v2h2v-2z"></path>
</symbol>
<symbol id="icon-twitter" viewBox="0 0 32 32">
<path  d="M28 8.559c-0.883 0.391-1.832 0.656-2.828 0.773 1.016-0.609 1.797-1.574 2.164-2.723-0.949 0.563-2.004 0.973-3.125 1.195-0.898-0.957-2.18-1.559-3.594-1.559-2.719 0-4.926 2.207-4.926 4.926 0 0.387 0.043 0.762 0.129 1.121-4.094-0.203-7.723-2.164-10.148-5.145-0.426 0.727-0.668 1.574-0.668 2.477 0 1.707 0.867 3.215 2.191 4.098-0.809-0.027-1.566-0.246-2.23-0.617 0 0.023 0 0.043 0 0.063 0 2.387 1.695 4.379 3.949 4.828-0.414 0.113-0.848 0.176-1.297 0.176-0.316 0-0.629-0.031-0.926-0.090 0.625 1.957 2.445 3.379 4.598 3.422-1.684 1.32-3.809 2.105-6.113 2.105-0.398 0-0.789-0.023-1.176-0.070 2.18 1.398 4.766 2.215 7.547 2.215 9.059 0 14.012-7.504 14.012-14.012 0-0.211-0.008-0.426-0.016-0.637 0.961-0.695 1.797-1.563 2.457-2.547z"></path>
</symbol>
</defs>
</svg>
